<svg xmlns="http://www.w3.org/2000/svg" viewBox="0 0 18 18"><g data-name="Ebene 2"><g data-name="Ebene 1"><path d="m13.13 11-.19.33L18 16.41 16.41 18l-5.07-5.11-.32.24a7.26 7.26 0 0 1-3.89 1.17 6.85 6.85 0 0 1-5-2.11A7 7 0 0 1 0 7.13a6.87 6.87 0 0 1 2.09-5A6.87 6.87 0 0 1 7.13 0a6.86 6.86 0 0 1 5 2.09 6.87 6.87 0 0 1 2.09 5A7.07 7.07 0 0 1 13.13 11Zm-2-7.83a5.43 5.43 0 0 0-4-1.64 5.43 5.43 0 0 0-4 1.64 5.43 5.43 0 0 0-1.64 4 5.43 5.43 0 0 0 1.64 4 5.43 5.43 0 0 0 4 1.64 5.43 5.43 0 0 0 4-1.64 5.54 5.54 0 0 0 0-8Z" data-name="Icon/Search" style="fill:#c40d1e"/></g></g></svg>