<svg xmlns="http://www.w3.org/2000/svg" viewBox="0 0 96.46 70"><defs><style>.cls-1{fill:#fff;}</style></defs><title>play-icon_1</title><g id="Ebene_2" data-name="Ebene 2"><g id="Ebene_1-2" data-name="Ebene 1"><rect class="cls-1" x="27" y="14" width="45" height="40"/><path class="cls-1" d="M94.52,10.94a84.84,84.84,0,0,1,1.77,15L96.46,35l-.17,9.11a85.83,85.83,0,0,1-1.77,15.13,12.8,12.8,0,0,1-3.18,5.47A12.1,12.1,0,0,1,85.86,68q-4.59,1.29-21.55,1.83L48.23,70l-16.08-.18Q15.2,69.27,10.6,68a12.1,12.1,0,0,1-5.48-3.28,12.8,12.8,0,0,1-3.18-5.47A86,86,0,0,1,.18,44.11L0,35q0-4,.18-9.11A85,85,0,0,1,1.94,10.94,12.74,12.74,0,0,1,5.12,5.29,12.1,12.1,0,0,1,10.6,2Q15.19.72,32.15.18L48.23,0,64.31.18Q81.28.74,85.86,2a12.1,12.1,0,0,1,5.48,3.28A12.74,12.74,0,0,1,94.52,10.94ZM38.34,50,63.6,35,38.34,20.23Z"/><path d="M90.16,13.66a72.74,72.74,0,0,1,1.61,13.21l.16,8.05-.16,8a73.68,73.68,0,0,1-1.61,13.37,11.44,11.44,0,0,1-7.89,7.73q-4.18,1.13-19.65,1.61L48,65.84l-14.65-.16q-15.47-.48-19.65-1.61a11.44,11.44,0,0,1-7.89-7.73A73.68,73.68,0,0,1,4.16,43l-.16-8c0-2.36,0-5.05.16-8A72.74,72.74,0,0,1,5.77,13.66a11.27,11.27,0,0,1,7.89-7.89q4.18-1.12,19.65-1.61L48,4l14.66.16q15.47.48,19.65,1.61a11.27,11.27,0,0,1,7.89,7.89ZM39,48.13,62,34.92l-23-13Z"/></g></g></svg>