<svg xmlns="http://www.w3.org/2000/svg" version="1.1" xmlns:xlink="http://www.w3.org/1999/xlink" xmlns:svgjs="http://svgjs.dev/svgjs" width="1000" height="1000"><svg id="SvgjsSvg1035" data-name="Ebene 1" viewBox="0 0 1000 999.99998" version="1.1" sodipodi:docname="master_centered.svg" width="1000" height="1000" inkscape:version="1.2.2 (b0a8486541, 2022-12-01)" xmlns:inkscape="http://www.inkscape.org/namespaces/inkscape" xmlns:sodipodi="http://sodipodi.sourceforge.net/DTD/sodipodi-0.dtd" xmlns="http://www.w3.org/2000/svg" xmlns:svg="http://www.w3.org/2000/svg">
  <sodipodi:namedview id="SvgjsSodipodi:namedview1034" pagecolor="#505050" bordercolor="#ffffff" borderopacity="1" inkscape:showpageshadow="0" inkscape:pageopacity="0" inkscape:pagecheckerboard="1" inkscape:deskcolor="#d1d1d1" showgrid="false" inkscape:zoom="1.31" inkscape:cx="421.37405" inkscape:cy="467.17557" inkscape:window-width="3440" inkscape:window-height="1371" inkscape:window-x="0" inkscape:window-y="32" inkscape:window-maximized="1" inkscape:current-layer="Ebene_1"></sodipodi:namedview>
  <defs id="SvgjsDefs1033">
    <style id="SvgjsStyle1032">
      .cls-1 {
        fill: #fff;
      }

      .cls-2 {
        fill: #c40d1e;
      }
    </style>
  </defs>
  <g id="SvgjsG1031" sodipodi:insensitive="true" transform="translate(0.41289583,117.5)">
    <g id="SvgjsG1030">
      <path class="cls-2" d="m 783.83,87.7 c 0,0 -65.32,676.69 -65.24,676.69 59.49,0 102.24,-17.66 135.44,-39.9 30.96,-20.74 54.95,-45.29 73.36,-76.95 23.79,-40.93 26.31,-78.97 28.31,-101.03 0.01,-0.18 44.31,-458.79 44.31,-458.79 H 783.84 Z" id="SvgjsPath1029"></path>
      <path class="cls-2" d="M 709.47,33.69 C 685.49,6.3 649.9,0 635.24,0 L 99.19,0.06 C 59.53,0.06 0,38.41 0,104.8 c 0,82.04 72.9,110.17 97.98,110.17 12.8,0 412.53,0 412.53,0 l -32.69,339.4 c -5.5,74.22 22.33,112.36 39.65,132.45 31.63,36.69 89.79,65.54 156.96,77.58 1.86,-19.73 62.55,-649.33 62.55,-649.44 2.01,-30.82 -6.96,-57.77 -27.53,-81.26 z" id="SvgjsPath1028"></path>
    </g>
    <path class="cls-2" d="m 205.48,675.94 c 5.08,-54.04 40.34,-417.29 40.34,-417.29 l 216.46,0.44 -40.14,416.85 z" id="SvgjsPath1027"></path>
  </g>
  <g id="SvgjsG1026" sodipodi:insensitive="true" transform="translate(0.41289583,117.5)">
    <path class="cls-1" d="m 920.47,465.13 c -1.03,10.78 -2.88,18.95 -5.83,27.26 l -109.39,-0.09 1.6,-16.48 34.94,0.03 c 4.42,0 10.48,0.47 14.35,1.4 l 0.03,-0.31 c -9.07,-4.01 -14.15,-13.1 -13.06,-24.35 1.75,-18.17 15.53,-28.17 38.4,-28.15 26.25,0.02 41.41,15.28 38.96,40.69 z m -64.2,-8.22 c -1.19,12.32 12.36,18.95 25.19,18.97 l 23.48,0.02 c 1.4,-3.39 2.22,-7.23 2.69,-12.01 1.25,-13.09 -5.82,-22.03 -26.26,-22.05 -15.25,0 -24.11,4.76 -25.1,15.07 z" id="SvgjsPath1025"></path>
    <path class="cls-1" d="m 894.28,345.71 -4.68,48.67 c 17.2,0.48 25.53,-6.91 27.05,-22.62 0.71,-7.39 -0.07,-15.09 -2.3,-22.03 l 12.87,-2.14 c 2.28,8 3.18,17.56 2.27,27.1 -2.27,23.56 -15.73,36.64 -42.43,36.62 -22.74,-0.02 -38.71,-13.12 -36.59,-35.3 2.11,-21.87 17.32,-30.95 34.56,-30.94 2.44,0 6.09,0.17 9.25,0.63 z m -31.69,31.24 c -0.89,9.23 5.35,15.71 15.75,17.11 l 3.13,-32.5 c -10.66,-0.32 -17.94,5.68 -18.87,15.38 z" id="SvgjsPath1024"></path>
    <path class="cls-1" d="m 875.16,287.58 c -4.36,15.24 5.45,22.64 28.18,22.66 l 30.83,0.02 -1.6,16.48 -75.82,-0.07 1.51,-15.71 c 4.26,0 10.93,0.47 16.64,1.56 l 0.03,-0.31 c -9.9,-3.4 -18.61,-11.11 -15.7,-25.43 l 15.94,0.79 z" id="SvgjsPath1023"></path>
    <path class="cls-1" d="m 937.77,272.7 -111.37,-0.09 1.59,-16.48 111.37,0.09 z" id="SvgjsPath1022"></path>
    <path class="cls-1" d="m 853.07,225.3 c -0.55,5.86 -5.44,10.62 -11.24,10.62 -5.64,0 -9.76,-4.78 -9.21,-10.64 0.55,-5.7 5.6,-10.46 11.24,-10.46 5.64,0 9.76,4.78 9.2,10.48 z m 88.45,8.39 -75.82,-0.07 1.59,-16.48 75.83,0.07 z" id="SvgjsPath1021"></path>
    <path class="cls-1" d="m 949.88,146.88 -48.67,-0.04 c -9.45,0 -15.36,2.61 -16.2,11.39 -1.1,11.56 10.12,20.03 25.39,20.04 l 36.45,0.03 -1.59,16.48 -75.82,-0.07 1.51,-15.71 c 4.12,0 10.64,0.32 14.83,1.09 v -0.15 c -9.32,-4.47 -15.14,-13.72 -13.89,-26.66 1.67,-17.4 13.17,-22.78 26.45,-22.76 l 53.09,0.04 -1.57,16.32 z" id="SvgjsPath1020"></path>
  </g>
</svg><style>@media (prefers-color-scheme: light) { :root { filter: none; } }
@media (prefers-color-scheme: dark) { :root { filter: none; } }
</style></svg>