<?xml version="1.0" encoding="UTF-8"?>
<svg viewBox="0 0 139 54"
     version="1.1"
     xmlns="http://www.w3.org/2000/svg"
     xmlns:xlink="http://www.w3.org/1999/xlink"
     width="139"
     height="54">
  <g stroke="none" stroke-width="1" fill="none" fill-rule="evenodd">
    <g transform="translate(-268.000000, -24.000000)">
      <path class="cls-2"
          d="M268.288,25.04 L277.72,25.04 L277.72,26.084 L273.616,26.084 L273.616,38 L272.392,38 L272.392,26.084 L268.288,26.084 L268.288,25.04 Z M282.416,38 L282.416,25.04 L291.038,25.04 L291.038,26.084 L283.64,26.084 L283.64,30.764 L290.318,30.764 L290.318,31.808 L283.64,31.808 L283.64,36.956 L291.218,36.956 L291.218,38 L282.416,38 Z M305.562,28.802 C305.309999,27.6979945 304.842004,26.9120023 304.158,26.444 C303.473997,25.9759977 302.580006,25.742 301.476,25.742 C300.695996,25.742 300.024003,25.8979984 299.46,26.21 C298.895997,26.5220016 298.431002,26.9419974 298.065,27.47 C297.698998,27.9980026 297.429001,28.6069965 297.255,29.297 C297.080999,29.9870034 296.994,30.7159962 296.994,31.484 C296.994,32.2040036 297.068999,32.9119965 297.219,33.608 C297.369001,34.3040035 297.617998,34.9249973 297.966,35.471 C298.314002,36.0170027 298.781997,36.4579983 299.37,36.794 C299.958003,37.1300017 300.695996,37.298 301.584,37.298 C302.136003,37.298 302.639998,37.2080009 303.096,37.028 C303.552002,36.8479991 303.950998,36.5990016 304.293,36.281 C304.635002,35.9629984 304.922999,35.5880022 305.157,35.156 C305.391001,34.7239978 305.567999,34.2500026 305.688,33.734 L306.966,33.734 C306.821999,34.3580031 306.612001,34.9489972 306.336,35.507 C306.059999,36.0650028 305.697002,36.5539979 305.247,36.974 C304.796998,37.3940021 304.251003,37.7269988 303.609,37.973 C302.966997,38.2190012 302.214004,38.342 301.35,38.342 C300.353995,38.342 299.502004,38.1590018 298.794,37.793 C298.085997,37.4269982 297.507002,36.9320031 297.057,36.308 C296.606998,35.6839969 296.280001,34.9610041 296.076,34.139 C295.871999,33.3169959 295.77,32.4440046 295.77,31.52 C295.77,30.2839938 295.922999,29.2340043 296.229,28.37 C296.535002,27.5059957 296.957997,26.8010027 297.498,26.255 C298.038003,25.7089973 298.673996,25.3130012 299.406,25.067 C300.138004,24.8209988 300.935996,24.698 301.8,24.698 C302.460003,24.698 303.074997,24.7849991 303.645,24.959 C304.215003,25.1330009 304.718998,25.3939983 305.157,25.742 C305.595002,26.0900017 305.954999,26.5189975 306.237,27.029 C306.519002,27.5390025 306.714,28.1299966 306.822,28.802 L305.562,28.802 Z M312.292,38 L312.292,25.04 L313.516,25.04 L313.516,30.602 L321.184,30.602 L321.184,25.04 L322.408,25.04 L322.408,38 L321.184,38 L321.184,31.646 L313.516,31.646 L313.516,38 L312.292,38 Z M329.48,26.696 L329.444,26.696 L329.444,38 L328.22,38 L328.22,25.04 L329.606,25.04 L337.094,36.362 L337.13,36.362 L337.13,25.04 L338.354,25.04 L338.354,38 L336.932,38 L329.48,26.696 Z M344.634,38 L344.634,25.04 L345.858,25.04 L345.858,38 L344.634,38 Z M352.66,34.13 C352.708001,34.7060029 352.836999,35.194998 353.047,35.597 C353.257001,35.999002 353.526999,36.3259987 353.857,36.578 C354.187002,36.8300013 354.567998,37.0129994 355,37.127 C355.432002,37.2410006 355.893998,37.298 356.386,37.298 C356.962003,37.298 357.459998,37.2260007 357.88,37.082 C358.300002,36.9379993 358.641999,36.7430012 358.906,36.497 C359.170002,36.2509988 359.365,35.9660016 359.491,35.642 C359.617001,35.3179984 359.68,34.9760018 359.68,34.616 C359.68,34.1119975 359.566001,33.7040016 359.338,33.392 C359.109999,33.0799984 358.813002,32.825001 358.447,32.627 C358.080998,32.428999 357.661003,32.2700006 357.187,32.15 C356.712998,32.0299994 356.227003,31.9130006 355.729,31.799 C355.230998,31.6849994 354.745003,31.5500008 354.271,31.394 C353.796998,31.2379992 353.377002,31.0280013 353.011,30.764 C352.644998,30.4999987 352.348001,30.1610021 352.12,29.747 C351.891999,29.3329979 351.778,28.8080032 351.778,28.172 C351.778,27.7279978 351.870999,27.2960021 352.057,26.876 C352.243001,26.4559979 352.518998,26.0840016 352.885,25.76 C353.251002,25.4359984 353.709998,25.178001 354.262,24.986 C354.814003,24.793999 355.449997,24.698 356.17,24.698 C356.902004,24.698 357.540998,24.799999 358.087,25.004 C358.633003,25.208001 359.085998,25.4869982 359.446,25.841 C359.806002,26.1950018 360.075999,26.6059977 360.256,27.074 C360.436001,27.5420023 360.526,28.0399974 360.526,28.568 L359.356,28.568 C359.356,28.0759975 359.269001,27.6500018 359.095,27.29 C358.920999,26.9299982 358.684002,26.6360011 358.384,26.408 C358.083999,26.1799989 357.742002,26.0120005 357.358,25.904 C356.973998,25.7959995 356.578002,25.742 356.17,25.742 C355.545997,25.742 355.021002,25.8289991 354.595,26.003 C354.168998,26.1770009 353.830002,26.4019986 353.578,26.678 C353.325999,26.9540014 353.152001,27.2599983 353.056,27.596 C352.96,27.9320017 352.942,28.2679983 353.002,28.604 C353.074001,29.0240021 353.241999,29.3599987 353.506,29.612 C353.770002,29.8640013 354.093998,30.0709992 354.478,30.233 C354.862002,30.3950008 355.284998,30.5269995 355.747,30.629 C356.209003,30.7310005 356.679998,30.8389994 357.16,30.953 C357.640003,31.0670006 358.104998,31.2019992 358.555,31.358 C359.005003,31.5140008 359.403999,31.7239987 359.752,31.988 C360.100002,32.2520013 360.378999,32.5909979 360.589,33.005 C360.799001,33.4190021 360.904,33.9379969 360.904,34.562 C360.904,35.762006 360.490004,36.6919967 359.662,37.352 C358.833996,38.0120033 357.670008,38.342 356.17,38.342 C355.497997,38.342 354.874003,38.2550009 354.298,38.081 C353.721997,37.9069991 353.224002,37.6430018 352.804,37.289 C352.383998,36.9349982 352.057001,36.4970026 351.823,35.975 C351.588999,35.4529974 351.472,34.8380035 351.472,34.13 L352.66,34.13 Z M375.302,28.802 C375.049999,27.6979945 374.582004,26.9120023 373.898,26.444 C373.213997,25.9759977 372.320006,25.742 371.216,25.742 C370.435996,25.742 369.764003,25.8979984 369.2,26.21 C368.635998,26.5220016 368.171002,26.9419974 367.805,27.47 C367.438999,27.9980026 367.169001,28.6069965 366.995,29.297 C366.820999,29.9870034 366.734,30.7159962 366.734,31.484 C366.734,32.2040036 366.809,32.9119965 366.959,33.608 C367.109001,34.3040035 367.357999,34.9249973 367.706,35.471 C368.054002,36.0170027 368.521997,36.4579983 369.11,36.794 C369.698003,37.1300017 370.435996,37.298 371.324,37.298 C371.876003,37.298 372.379998,37.2080009 372.836,37.028 C373.292003,36.8479991 373.690999,36.5990016 374.033,36.281 C374.375002,35.9629984 374.662999,35.5880022 374.897,35.156 C375.131002,34.7239978 375.308,34.2500026 375.428,33.734 L376.706,33.734 C376.562,34.3580031 376.352002,34.9489972 376.076,35.507 C375.799999,36.0650028 375.437003,36.5539979 374.987,36.974 C374.536998,37.3940021 373.991004,37.7269988 373.349,37.973 C372.706997,38.2190012 371.954005,38.342 371.09,38.342 C370.093995,38.342 369.242004,38.1590018 368.534,37.793 C367.825997,37.4269982 367.247003,36.9320031 366.797,36.308 C366.346998,35.6839969 366.020001,34.9610041 365.816,34.139 C365.611999,33.3169959 365.51,32.4440046 365.51,31.52 C365.51,30.2839938 365.662999,29.2340043 365.969,28.37 C366.275002,27.5059957 366.697998,26.8010027 367.238,26.255 C367.778003,25.7089973 368.413997,25.3130012 369.146,25.067 C369.878004,24.8209988 370.675996,24.698 371.54,24.698 C372.200004,24.698 372.814997,24.7849991 373.385,24.959 C373.955003,25.1330009 374.458998,25.3939983 374.897,25.742 C375.335003,26.0900017 375.694999,26.5189975 375.977,27.029 C376.259002,27.5390025 376.454,28.1299966 376.562,28.802 L375.302,28.802 Z M382.032,38 L382.032,25.04 L383.256,25.04 L383.256,30.602 L390.924,30.602 L390.924,25.04 L392.148,25.04 L392.148,38 L390.924,38 L390.924,31.646 L383.256,31.646 L383.256,38 L382.032,38 Z M397.996,38 L397.996,25.04 L406.618,25.04 L406.618,26.084 L399.22,26.084 L399.22,30.764 L405.898,30.764 L405.898,31.808 L399.22,31.808 L399.22,36.956 L406.798,36.956 L406.798,38 L397.996,38 Z M269.476,45.04 L270.7,45.04 L270.7,52.762 C270.7,54.370008 270.999997,55.5279965 271.6,56.236 C272.200003,56.9440035 273.165993,57.298 274.498,57.298 C275.194003,57.298 275.784998,57.2050009 276.271,57.019 C276.757002,56.8329991 277.149998,56.5510019 277.45,56.173 C277.750001,55.7949981 277.965999,55.3240028 278.098,54.76 C278.230001,54.1959972 278.296,53.5300038 278.296,52.762 L278.296,45.04 L279.52,45.04 L279.52,53.122 C279.52,54.8140085 279.103004,56.1069955 278.269,57.001 C277.434996,57.8950045 276.178008,58.342 274.498,58.342 C272.805992,58.342 271.546004,57.8860046 270.718,56.974 C269.889996,56.0619954 269.476,54.7780083 269.476,53.122 L269.476,45.04 Z M286.628,46.696 L286.592,46.696 L286.592,58 L285.368,58 L285.368,45.04 L286.754,45.04 L294.242,56.362 L294.278,56.362 L294.278,45.04 L295.502,45.04 L295.502,58 L294.08,58 L286.628,46.696 Z M301.782,58 L301.782,45.04 L303.006,45.04 L303.006,58 L301.782,58 Z M308.17,45.04 L309.448,45.04 L313.354,56.56 L317.242,45.04 L318.52,45.04 L314.02,58 L312.67,58 L308.17,45.04 Z M323.252,58 L323.252,45.04 L331.874,45.04 L331.874,46.084 L324.476,46.084 L324.476,50.764 L331.154,50.764 L331.154,51.808 L324.476,51.808 L324.476,56.956 L332.054,56.956 L332.054,58 L323.252,58 Z M342.222,51.07 C342.678003,51.07 343.100998,51.0220005 343.491,50.926 C343.881002,50.8299995 344.219999,50.6770011 344.508,50.467 C344.796002,50.256999 345.023999,49.9900016 345.192,49.666 C345.360001,49.3419984 345.444,48.9520023 345.444,48.496 C345.444,48.0159976 345.357001,47.6200016 345.183,47.308 C345.008999,46.9959984 344.775002,46.7500009 344.481,46.57 C344.186999,46.3899991 343.851002,46.2640004 343.473,46.192 C343.094998,46.1199996 342.702002,46.084 342.294,46.084 L338.406,46.084 L338.406,51.07 L342.222,51.07 Z M338.406,52.114 L338.406,58 L337.182,58 L337.182,45.04 L342.258,45.04 C343.686007,45.04 344.777996,45.3069973 345.534,45.841 C346.290004,46.3750027 346.668,47.241994 346.668,48.442 C346.668,49.2580041 346.503002,49.9059976 346.173,50.386 C345.842999,50.8660024 345.306004,51.2739983 344.562,51.61 C344.946002,51.7420007 345.245999,51.9339987 345.462,52.186 C345.678001,52.4380013 345.84,52.7259984 345.948,53.05 C346.056001,53.3740016 346.125,53.7159982 346.155,54.076 C346.185,54.4360018 346.206,54.7839983 346.218,55.12 C346.23,55.6120025 346.251,56.0199984 346.281,56.344 C346.311,56.6680016 346.347,56.931999 346.389,57.136 C346.431,57.340001 346.482,57.4989994 346.542,57.613 C346.602001,57.7270006 346.674,57.8139997 346.758,57.874 L346.758,58 L345.408,58 C345.276,57.7839989 345.183001,57.4840019 345.129,57.1 C345.075,56.7159981 345.033,56.3140021 345.003,55.894 C344.973,55.4739979 344.949,55.066002 344.931,54.67 C344.913,54.273998 344.88,53.9500013 344.832,53.698 C344.76,53.3499983 344.643001,53.0710011 344.481,52.861 C344.318999,52.650999 344.124001,52.4920005 343.896,52.384 C343.667999,52.2759995 343.413002,52.2040002 343.131,52.168 C342.848999,52.1319998 342.558002,52.114 342.258,52.114 L338.406,52.114 Z M352.66,54.13 C352.708001,54.7060029 352.836999,55.194998 353.047,55.597 C353.257001,55.999002 353.526999,56.3259987 353.857,56.578 C354.187002,56.8300013 354.567998,57.0129994 355,57.127 C355.432002,57.2410006 355.893998,57.298 356.386,57.298 C356.962003,57.298 357.459998,57.2260007 357.88,57.082 C358.300002,56.9379993 358.641999,56.7430012 358.906,56.497 C359.170002,56.2509988 359.365,55.9660016 359.491,55.642 C359.617001,55.3179984 359.68,54.9760018 359.68,54.616 C359.68,54.1119975 359.566001,53.7040016 359.338,53.392 C359.109999,53.0799984 358.813002,52.825001 358.447,52.627 C358.080998,52.428999 357.661003,52.2700006 357.187,52.15 C356.712998,52.0299994 356.227003,51.9130006 355.729,51.799 C355.230998,51.6849994 354.745003,51.5500008 354.271,51.394 C353.796998,51.2379992 353.377002,51.0280013 353.011,50.764 C352.644998,50.4999987 352.348001,50.1610021 352.12,49.747 C351.891999,49.3329979 351.778,48.8080032 351.778,48.172 C351.778,47.7279978 351.870999,47.2960021 352.057,46.876 C352.243001,46.4559979 352.518998,46.0840016 352.885,45.76 C353.251002,45.4359984 353.709998,45.178001 354.262,44.986 C354.814003,44.793999 355.449997,44.698 356.17,44.698 C356.902004,44.698 357.540998,44.799999 358.087,45.004 C358.633003,45.208001 359.085998,45.4869982 359.446,45.841 C359.806002,46.1950018 360.075999,46.6059977 360.256,47.074 C360.436001,47.5420023 360.526,48.0399974 360.526,48.568 L359.356,48.568 C359.356,48.0759975 359.269001,47.6500018 359.095,47.29 C358.920999,46.9299982 358.684002,46.6360011 358.384,46.408 C358.083999,46.1799989 357.742002,46.0120005 357.358,45.904 C356.973998,45.7959995 356.578002,45.742 356.17,45.742 C355.545997,45.742 355.021002,45.8289991 354.595,46.003 C354.168998,46.1770009 353.830002,46.4019986 353.578,46.678 C353.325999,46.9540014 353.152001,47.2599983 353.056,47.596 C352.96,47.9320017 352.942,48.2679983 353.002,48.604 C353.074001,49.0240021 353.241999,49.3599987 353.506,49.612 C353.770002,49.8640013 354.093998,50.0709992 354.478,50.233 C354.862002,50.3950008 355.284998,50.5269995 355.747,50.629 C356.209003,50.7310005 356.679998,50.8389994 357.16,50.953 C357.640003,51.0670006 358.104998,51.2019992 358.555,51.358 C359.005003,51.5140008 359.403999,51.7239987 359.752,51.988 C360.100002,52.2520013 360.378999,52.5909979 360.589,53.005 C360.799001,53.4190021 360.904,53.9379969 360.904,54.562 C360.904,55.762006 360.490004,56.6919967 359.662,57.352 C358.833996,58.0120033 357.670008,58.342 356.17,58.342 C355.497997,58.342 354.874003,58.2550009 354.298,58.081 C353.721997,57.9069991 353.224002,57.6430018 352.804,57.289 C352.383998,56.9349982 352.057001,56.4970026 351.823,55.975 C351.588999,55.4529974 351.472,54.8380035 351.472,54.13 L352.66,54.13 Z M366.536,58 L366.536,45.04 L367.76,45.04 L367.76,58 L366.536,58 Z M372.888,45.04 L382.32,45.04 L382.32,46.084 L378.216,46.084 L378.216,58 L376.992,58 L376.992,46.084 L372.888,46.084 L372.888,45.04 Z M384.172,58 L389.266,45.04 L390.652,45.04 L395.62,58 L394.36,58 L392.866,53.932 L386.962,53.932 L385.432,58 L384.172,58 Z M387.376,52.888 L392.452,52.888 L389.914,46.084 L387.376,52.888 Z M387.988,42.016 L389.158,42.016 L389.158,43.852 L387.988,43.852 L387.988,42.016 Z M390.85,42.016 L392.02,42.016 L392.02,43.852 L390.85,43.852 L390.85,42.016 Z M397.49,45.04 L406.922,45.04 L406.922,46.084 L402.818,46.084 L402.818,58 L401.594,58 L401.594,46.084 L397.49,46.084 L397.49,45.04 Z M270.682,76.956 L273.796,76.956 C274.468003,76.956 275.052998,76.9260003 275.551,76.866 C276.049002,76.8059997 276.459998,76.6830009 276.784,76.497 C277.108002,76.3109991 277.350999,76.0470017 277.513,75.705 C277.675001,75.3629983 277.756,74.9100028 277.756,74.346 C277.756,73.8059973 277.666001,73.3710017 277.486,73.041 C277.305999,72.7109984 277.048002,72.4560009 276.712,72.276 C276.375998,72.0959991 275.974002,71.9730003 275.506,71.907 C275.037998,71.8409997 274.516003,71.808 273.94,71.808 L270.682,71.808 L270.682,76.956 Z M270.682,70.764 L273.778,70.764 C274.414003,70.764 274.947998,70.7100005 275.38,70.602 C275.812002,70.4939995 276.159999,70.335001 276.424,70.125 C276.688001,69.9149989 276.876999,69.6570015 276.991,69.351 C277.105001,69.0449985 277.162,68.694002 277.162,68.298 C277.162,67.889998 277.096001,67.5450014 276.964,67.263 C276.831999,66.9809986 276.622001,66.7530009 276.334,66.579 C276.045999,66.4049991 275.671002,66.2790004 275.209,66.201 C274.746998,66.1229996 274.180003,66.084 273.508,66.084 L270.682,66.084 L270.682,70.764 Z M269.458,78 L269.458,65.04 L274.138,65.04 C274.894004,65.04 275.541997,65.1179992 276.082,65.274 C276.622003,65.4300008 277.062998,65.6519986 277.405,65.94 C277.747002,66.2280014 277.995999,66.572998 278.152,66.975 C278.308001,67.377002 278.386,67.8179976 278.386,68.298 C278.386,68.7540023 278.326001,69.1469983 278.206,69.477 C278.085999,69.8070016 277.930001,70.0829989 277.738,70.305 C277.545999,70.5270011 277.327001,70.7009994 277.081,70.827 C276.834999,70.9530006 276.580001,71.0399998 276.316,71.088 L276.316,71.124 C277.216004,71.2560007 277.884998,71.6099971 278.323,72.186 C278.761002,72.7620029 278.98,73.4819957 278.98,74.346 C278.98,75.0180034 278.875001,75.5879977 278.665,76.056 C278.454999,76.5240023 278.164002,76.9019986 277.792,77.19 C277.419998,77.4780014 276.973003,77.6849994 276.451,77.811 C275.928997,77.9370006 275.362003,78 274.75,78 L269.458,78 Z M284.414,78 L284.414,65.04 L293.036,65.04 L293.036,66.084 L285.638,66.084 L285.638,70.764 L292.316,70.764 L292.316,71.808 L285.638,71.808 L285.638,76.956 L293.216,76.956 L293.216,78 L284.414,78 Z M303.384,71.07 C303.840002,71.07 304.262998,71.0220005 304.653,70.926 C305.043002,70.8299995 305.381999,70.6770011 305.67,70.467 C305.958002,70.2569989 306.185999,69.9900016 306.354,69.666 C306.522001,69.3419984 306.606,68.9520023 306.606,68.496 C306.606,68.0159976 306.519001,67.6200016 306.345,67.308 C306.170999,66.9959984 305.937002,66.7500009 305.643,66.57 C305.348999,66.3899991 305.013002,66.2640004 304.635,66.192 C304.256998,66.1199996 303.864002,66.084 303.456,66.084 L299.568,66.084 L299.568,71.07 L303.384,71.07 Z M299.568,72.114 L299.568,78 L298.344,78 L298.344,65.04 L303.42,65.04 C304.848007,65.04 305.939996,65.3069973 306.696,65.841 C307.452004,66.3750027 307.83,67.241994 307.83,68.442 C307.83,69.2580041 307.665002,69.9059976 307.335,70.386 C307.004998,70.8660024 306.468004,71.2739983 305.724,71.61 C306.108002,71.7420007 306.407999,71.9339987 306.624,72.186 C306.840001,72.4380013 307.002,72.7259984 307.11,73.05 C307.218001,73.3740016 307.287,73.7159982 307.317,74.076 C307.347,74.4360018 307.368,74.7839983 307.38,75.12 C307.392,75.6120025 307.413,76.0199984 307.443,76.344 C307.473,76.6680016 307.509,76.931999 307.551,77.136 C307.593,77.340001 307.644,77.4989994 307.704,77.613 C307.764,77.7270006 307.836,77.8139997 307.92,77.874 L307.92,78 L306.57,78 C306.437999,77.7839989 306.345,77.4840019 306.291,77.1 C306.237,76.7159981 306.195,76.3140021 306.165,75.894 C306.135,75.4739979 306.111,75.066002 306.093,74.67 C306.075,74.273998 306.042,73.9500013 305.994,73.698 C305.922,73.3499983 305.805001,73.071001 305.643,72.861 C305.480999,72.650999 305.286001,72.4920005 305.058,72.384 C304.829999,72.2759995 304.575002,72.2040002 304.293,72.168 C304.010999,72.1319998 303.720002,72.114 303.42,72.114 L299.568,72.114 Z M313.318,78 L313.318,65.04 L314.542,65.04 L314.542,76.956 L321.49,76.956 L321.49,78 L313.318,78 Z M326.708,78 L326.708,65.04 L327.932,65.04 L327.932,78 L326.708,78 Z M335.454,66.696 L335.418,66.696 L335.418,78 L334.194,78 L334.194,65.04 L335.58,65.04 L343.068,76.362 L343.104,76.362 L343.104,65.04 L344.328,65.04 L344.328,78 L342.906,78 L335.454,66.696 Z" fill="#FFFFFF"></path>
    </g>
  </g>
</svg>
