<svg xmlns="http://www.w3.org/2000/svg" width="50" height="50"><path d="M12 0c-1.1 0-2 .9-2 2v2H4c-.52 0-1.05.2-1.43.57C2.19 4.95 2 5.47 2 6v40c0 .52.2 1.05.57 1.43.38.38.9.57 1.43.57h42c.52 0 1.05-.2 1.43-.57.38-.38.57-.9.57-1.43V6c0-.52-.2-1.05-.57-1.43A2.03 2.03 0 0 0 46 4h-6V2c0-1.1-.9-2-2-2h-2c-1.1 0-2 .9-2 2v2H16V2c0-1.1-.9-2-2-2Zm0 2h2v6h-2Zm24 0h2v6h-2ZM4 6h6v2c0 1.1.9 2 2 2h2c1.1 0 2-.9 2-2V6h18v2c0 1.1.9 2 2 2h2c1.1 0 2-.9 2-2V6h6v7H4Zm0 9h42v31H4Zm6 4v23h30V19Zm2 2h5v5h-5Zm7 0h5v5h-5Zm7 0h5v5h-5Zm7 0h5v5h-5Zm-21 7h5v5h-5Zm7 0h5v5h-5Zm7 0h5v5h-5Zm7 0h5v5h-5Zm-21 7h5v5h-5Zm7 0h5v5h-5Zm7 0h5v5h-5Zm7 0h5v5h-5Z" style="fill:#c40d1f;fill-opacity:.94117647"/></svg>